# xmcd CD database file
#
# Track frame offsets:
#	150
#	16684
#	29756
#	39259
#	51338
#	66969
#	82737
#	95071
#	111025
#	126233
#	139958
#	153179
#	169474
#	182564
#
# Disc length: 2612 seconds
#
# Revision: 0
# Processed by: cddbd v1.5.2PL0 Copyright (c) Steve Scherf et al.
# Submitted via: CDex 1.70beta2
#
DISCID=b90a320e
DTITLE=Varios - Saudades do Sertao
DYEAR=1900
DGENRE=Country
TTITLE0=Carlos Cezar and Cristiano - A Volta Do Boiadeiro
TTITLE1=As Mineirinhas - Deixe Que Falem De N￳s
TTITLE2=Milionário and José Rico - Estrada Da Vida
TTITLE3=Zé Bettio - Feijão Queimado
TTITLE4=Silveira and Silveirinha - Folia De Reis
TTITLE5=Inezita Barroso - Moda Da Pinga (Marvada Pinga)
TTITLE6=Tonico and Tinoco - Moreninha Linda
TTITLE7=Barrerito - Nossos Momentos De Amor
TTITLE8=Teodoro and Sampaio - O Garrafão (Ao Vivo)
TTITLE9=Irmãs Galvão - Quem Diria
TTITLE10=Irídio and Irineu - Recordação De Boiadeiro
TTITLE11=Juliano César - Rumo A Goiânia
TTITLE12=Sérgio Reis - Saudade De Minha Terra
TTITLE13=As Marcianas - Xonado De Novo
EXTD=
EXTT0=
EXTT1=
EXTT2=
EXTT3=
EXTT4=
EXTT5=
EXTT6=
EXTT7=
EXTT8=
EXTT9=
EXTT10=
EXTT11=
EXTT12=
EXTT13=
PLAYORDER=
